<mxfile host="Electron" agent="Mozilla/5.0 (Windows NT 10.0; Win64; x64) AppleWebKit/537.36 (KHTML, like Gecko) draw.io/24.7.17 Chrome/128.0.6613.36 Electron/32.0.1 Safari/537.36" version="24.7.17">
  <diagram name="Pagina-1" id="r82ZDPYSJw3-WVpSnr3U">
    <mxGraphModel dx="802" dy="461" grid="1" gridSize="10" guides="1" tooltips="1" connect="1" arrows="1" fold="1" page="1" pageScale="1" pageWidth="827" pageHeight="1169" math="1" shadow="0">
      <root>
        <mxCell id="0" />
        <mxCell id="1" parent="0" />
        <mxCell id="0NcazuiiNFSr5XM73g2q-91" value="" style="rounded=0;whiteSpace=wrap;html=1;fillColor=#F9FFD4;strokeColor=none;gradientColor=none;" parent="1" vertex="1">
          <mxGeometry x="460" y="240" width="91" height="190" as="geometry" />
        </mxCell>
        <mxCell id="0NcazuiiNFSr5XM73g2q-92" value="" style="rounded=0;whiteSpace=wrap;html=1;fillColor=#C9FFD2;strokeColor=none;gradientColor=none;" parent="1" vertex="1">
          <mxGeometry x="560" y="240" width="91" height="190" as="geometry" />
        </mxCell>
        <mxCell id="0NcazuiiNFSr5XM73g2q-93" value="" style="rounded=0;whiteSpace=wrap;html=1;fillColor=#CFEAFF;strokeColor=none;gradientColor=none;" parent="1" vertex="1">
          <mxGeometry x="359" y="240" width="91" height="190" as="geometry" />
        </mxCell>
        <mxCell id="0NcazuiiNFSr5XM73g2q-94" value="thread 0:" style="text;html=1;align=center;verticalAlign=middle;whiteSpace=wrap;rounded=0;" parent="1" vertex="1">
          <mxGeometry x="279" y="240" width="60" height="40" as="geometry" />
        </mxCell>
        <mxCell id="0NcazuiiNFSr5XM73g2q-95" value="thread 1:" style="text;html=1;align=center;verticalAlign=middle;whiteSpace=wrap;rounded=0;" parent="1" vertex="1">
          <mxGeometry x="279" y="290" width="60" height="40" as="geometry" />
        </mxCell>
        <mxCell id="0NcazuiiNFSr5XM73g2q-96" value="thread 2:" style="text;html=1;align=center;verticalAlign=middle;whiteSpace=wrap;rounded=0;" parent="1" vertex="1">
          <mxGeometry x="279" y="340" width="60" height="40" as="geometry" />
        </mxCell>
        <mxCell id="0NcazuiiNFSr5XM73g2q-97" value="thread 3:" style="text;html=1;align=center;verticalAlign=middle;whiteSpace=wrap;rounded=0;fontColor=#000000;" parent="1" vertex="1">
          <mxGeometry x="279" y="390" width="60" height="40" as="geometry" />
        </mxCell>
        <mxCell id="0NcazuiiNFSr5XM73g2q-98" value="c(0,0)" style="rounded=1;whiteSpace=wrap;html=1;fillColor=none;fontFamily=Lucida Console;fontSize=10;" parent="1" vertex="1">
          <mxGeometry x="359" y="240" width="40" height="40" as="geometry" />
        </mxCell>
        <mxCell id="0NcazuiiNFSr5XM73g2q-99" value="&lt;span style=&quot;font-family: &amp;quot;Lucida Console&amp;quot;; font-size: 10px;&quot;&gt;c(0,1)&lt;/span&gt;" style="rounded=1;whiteSpace=wrap;html=1;fillColor=none;" parent="1" vertex="1">
          <mxGeometry x="409" y="240" width="40" height="40" as="geometry" />
        </mxCell>
        <mxCell id="0NcazuiiNFSr5XM73g2q-100" value="c(0,2)" style="rounded=1;whiteSpace=wrap;html=1;fillColor=none;fontFamily=Lucida Console;fontSize=10;" parent="1" vertex="1">
          <mxGeometry x="359" y="290" width="40" height="40" as="geometry" />
        </mxCell>
        <mxCell id="0NcazuiiNFSr5XM73g2q-101" value="&lt;span style=&quot;font-family: &amp;quot;Lucida Console&amp;quot;; font-size: 10px;&quot;&gt;c(0,3)&lt;/span&gt;" style="rounded=1;whiteSpace=wrap;html=1;fillColor=none;" parent="1" vertex="1">
          <mxGeometry x="409" y="290" width="40" height="40" as="geometry" />
        </mxCell>
        <mxCell id="0NcazuiiNFSr5XM73g2q-102" value="c(0,4)" style="rounded=1;whiteSpace=wrap;html=1;fillColor=none;fontFamily=Lucida Console;fontSize=10;" parent="1" vertex="1">
          <mxGeometry x="359" y="340" width="40" height="40" as="geometry" />
        </mxCell>
        <mxCell id="0NcazuiiNFSr5XM73g2q-103" value="c(0,5)" style="rounded=1;whiteSpace=wrap;html=1;fillColor=none;fontFamily=Lucida Console;fontSize=10;" parent="1" vertex="1">
          <mxGeometry x="359" y="390" width="40" height="40" as="geometry" />
        </mxCell>
        <mxCell id="0NcazuiiNFSr5XM73g2q-104" value="c(1,0)" style="rounded=1;whiteSpace=wrap;html=1;fillColor=none;fontFamily=Lucida Console;fontSize=10;" parent="1" vertex="1">
          <mxGeometry x="460" y="240" width="40" height="40" as="geometry" />
        </mxCell>
        <mxCell id="0NcazuiiNFSr5XM73g2q-105" value="&lt;span style=&quot;font-family: &amp;quot;Lucida Console&amp;quot;; font-size: 10px;&quot;&gt;c(1,1)&lt;/span&gt;" style="rounded=1;whiteSpace=wrap;html=1;fillColor=none;" parent="1" vertex="1">
          <mxGeometry x="510" y="240" width="40" height="40" as="geometry" />
        </mxCell>
        <mxCell id="0NcazuiiNFSr5XM73g2q-106" value="c(1,2)" style="rounded=1;whiteSpace=wrap;html=1;fillColor=none;fontFamily=Lucida Console;fontSize=10;" parent="1" vertex="1">
          <mxGeometry x="460" y="290" width="40" height="40" as="geometry" />
        </mxCell>
        <mxCell id="0NcazuiiNFSr5XM73g2q-107" value="&lt;span style=&quot;font-family: &amp;quot;Lucida Console&amp;quot;; font-size: 10px;&quot;&gt;c(1,3)&lt;/span&gt;" style="rounded=1;whiteSpace=wrap;html=1;fillColor=none;" parent="1" vertex="1">
          <mxGeometry x="510" y="290" width="40" height="40" as="geometry" />
        </mxCell>
        <mxCell id="0NcazuiiNFSr5XM73g2q-108" value="c(1,4)" style="rounded=1;whiteSpace=wrap;html=1;fillColor=none;fontFamily=Lucida Console;fontSize=10;" parent="1" vertex="1">
          <mxGeometry x="460" y="340" width="40" height="40" as="geometry" />
        </mxCell>
        <mxCell id="0NcazuiiNFSr5XM73g2q-109" value="c(1,5)" style="rounded=1;whiteSpace=wrap;html=1;fillColor=none;fontFamily=Lucida Console;fontSize=10;" parent="1" vertex="1">
          <mxGeometry x="460" y="390" width="40" height="40" as="geometry" />
        </mxCell>
        <mxCell id="0NcazuiiNFSr5XM73g2q-110" value="c(2,0)" style="rounded=1;whiteSpace=wrap;html=1;fillColor=none;fontFamily=Lucida Console;fontSize=10;" parent="1" vertex="1">
          <mxGeometry x="560" y="240" width="40" height="40" as="geometry" />
        </mxCell>
        <mxCell id="0NcazuiiNFSr5XM73g2q-111" value="&lt;span style=&quot;font-family: &amp;quot;Lucida Console&amp;quot;; font-size: 10px;&quot;&gt;c(2,1)&lt;/span&gt;" style="rounded=1;whiteSpace=wrap;html=1;fillColor=none;" parent="1" vertex="1">
          <mxGeometry x="610" y="240" width="40" height="40" as="geometry" />
        </mxCell>
        <mxCell id="0NcazuiiNFSr5XM73g2q-112" value="c(2,2)" style="rounded=1;whiteSpace=wrap;html=1;fillColor=none;fontFamily=Lucida Console;fontSize=10;" parent="1" vertex="1">
          <mxGeometry x="560" y="290" width="40" height="40" as="geometry" />
        </mxCell>
        <mxCell id="0NcazuiiNFSr5XM73g2q-113" value="&lt;span style=&quot;font-family: &amp;quot;Lucida Console&amp;quot;; font-size: 10px;&quot;&gt;c(2,3)&lt;/span&gt;" style="rounded=1;whiteSpace=wrap;html=1;fillColor=none;" parent="1" vertex="1">
          <mxGeometry x="610" y="290" width="40" height="40" as="geometry" />
        </mxCell>
        <mxCell id="0NcazuiiNFSr5XM73g2q-114" value="c(2,4)" style="rounded=1;whiteSpace=wrap;html=1;fillColor=none;fontFamily=Lucida Console;fontSize=10;" parent="1" vertex="1">
          <mxGeometry x="560" y="340" width="40" height="40" as="geometry" />
        </mxCell>
        <mxCell id="0NcazuiiNFSr5XM73g2q-115" value="c(2,5)" style="rounded=1;whiteSpace=wrap;html=1;fillColor=none;fontFamily=Lucida Console;fontSize=10;" parent="1" vertex="1">
          <mxGeometry x="560" y="390" width="40" height="40" as="geometry" />
        </mxCell>
        <mxCell id="0NcazuiiNFSr5XM73g2q-116" value="\(1^\circ\) iterazione esterna" style="text;html=1;align=center;verticalAlign=middle;whiteSpace=wrap;rounded=0;" parent="1" vertex="1">
          <mxGeometry x="359" y="190" width="91" height="50" as="geometry" />
        </mxCell>
        <mxCell id="0NcazuiiNFSr5XM73g2q-117" value="\(2^\circ\) iterazione esterna" style="text;html=1;align=center;verticalAlign=middle;whiteSpace=wrap;rounded=0;" parent="1" vertex="1">
          <mxGeometry x="459" y="190" width="91" height="50" as="geometry" />
        </mxCell>
        <mxCell id="0NcazuiiNFSr5XM73g2q-118" value="\(3^\circ\)&amp;nbsp;iterazione esterna" style="text;html=1;align=center;verticalAlign=middle;whiteSpace=wrap;rounded=0;" parent="1" vertex="1">
          <mxGeometry x="560" y="200" width="91" height="40" as="geometry" />
        </mxCell>
        <mxCell id="Z-Aj-kBgifs0zt67aA0C-15" value="" style="endArrow=classic;html=1;rounded=0;" edge="1" parent="1" target="Z-Aj-kBgifs0zt67aA0C-16">
          <mxGeometry width="50" height="50" relative="1" as="geometry">
            <mxPoint x="281" y="455" as="sourcePoint" />
            <mxPoint x="711" y="455" as="targetPoint" />
          </mxGeometry>
        </mxCell>
        <mxCell id="Z-Aj-kBgifs0zt67aA0C-16" value="istanti di&amp;nbsp;&lt;div&gt;tempo&lt;/div&gt;" style="text;html=1;align=center;verticalAlign=middle;whiteSpace=wrap;rounded=0;" vertex="1" parent="1">
          <mxGeometry x="681" y="440" width="60" height="30" as="geometry" />
        </mxCell>
        <mxCell id="Z-Aj-kBgifs0zt67aA0C-17" value="" style="endArrow=none;html=1;rounded=0;" edge="1" parent="1">
          <mxGeometry width="50" height="50" relative="1" as="geometry">
            <mxPoint x="359.81" y="465" as="sourcePoint" />
            <mxPoint x="359.81" y="445" as="targetPoint" />
          </mxGeometry>
        </mxCell>
        <mxCell id="Z-Aj-kBgifs0zt67aA0C-18" value="" style="endArrow=none;html=1;rounded=0;" edge="1" parent="1">
          <mxGeometry width="50" height="50" relative="1" as="geometry">
            <mxPoint x="409.67" y="465" as="sourcePoint" />
            <mxPoint x="409.67" y="445" as="targetPoint" />
          </mxGeometry>
        </mxCell>
        <mxCell id="Z-Aj-kBgifs0zt67aA0C-19" value="" style="endArrow=none;html=1;rounded=0;" edge="1" parent="1">
          <mxGeometry width="50" height="50" relative="1" as="geometry">
            <mxPoint x="460" y="465" as="sourcePoint" />
            <mxPoint x="460" y="445" as="targetPoint" />
          </mxGeometry>
        </mxCell>
        <mxCell id="Z-Aj-kBgifs0zt67aA0C-20" value="" style="endArrow=none;html=1;rounded=0;" edge="1" parent="1">
          <mxGeometry width="50" height="50" relative="1" as="geometry">
            <mxPoint x="511" y="465" as="sourcePoint" />
            <mxPoint x="511" y="445" as="targetPoint" />
          </mxGeometry>
        </mxCell>
        <mxCell id="Z-Aj-kBgifs0zt67aA0C-21" value="" style="endArrow=none;html=1;rounded=0;" edge="1" parent="1">
          <mxGeometry width="50" height="50" relative="1" as="geometry">
            <mxPoint x="560.6" y="465" as="sourcePoint" />
            <mxPoint x="560.6" y="445" as="targetPoint" />
          </mxGeometry>
        </mxCell>
        <mxCell id="Z-Aj-kBgifs0zt67aA0C-22" value="" style="endArrow=none;html=1;rounded=0;" edge="1" parent="1">
          <mxGeometry width="50" height="50" relative="1" as="geometry">
            <mxPoint x="610.67" y="465" as="sourcePoint" />
            <mxPoint x="610.67" y="445" as="targetPoint" />
          </mxGeometry>
        </mxCell>
        <mxCell id="Z-Aj-kBgifs0zt67aA0C-23" value="0" style="text;html=1;align=center;verticalAlign=middle;whiteSpace=wrap;rounded=0;" vertex="1" parent="1">
          <mxGeometry x="349" y="465" width="11" height="20" as="geometry" />
        </mxCell>
        <mxCell id="Z-Aj-kBgifs0zt67aA0C-24" value="1" style="text;html=1;align=center;verticalAlign=middle;whiteSpace=wrap;rounded=0;" vertex="1" parent="1">
          <mxGeometry x="399" y="465" width="11" height="20" as="geometry" />
        </mxCell>
        <mxCell id="Z-Aj-kBgifs0zt67aA0C-25" value="2" style="text;html=1;align=center;verticalAlign=middle;whiteSpace=wrap;rounded=0;" vertex="1" parent="1">
          <mxGeometry x="450" y="465" width="11" height="20" as="geometry" />
        </mxCell>
        <mxCell id="Z-Aj-kBgifs0zt67aA0C-26" value="3" style="text;html=1;align=center;verticalAlign=middle;whiteSpace=wrap;rounded=0;" vertex="1" parent="1">
          <mxGeometry x="500" y="465" width="11" height="20" as="geometry" />
        </mxCell>
        <mxCell id="Z-Aj-kBgifs0zt67aA0C-27" value="4" style="text;html=1;align=center;verticalAlign=middle;whiteSpace=wrap;rounded=0;" vertex="1" parent="1">
          <mxGeometry x="550" y="465" width="11" height="20" as="geometry" />
        </mxCell>
        <mxCell id="Z-Aj-kBgifs0zt67aA0C-28" value="5" style="text;html=1;align=center;verticalAlign=middle;whiteSpace=wrap;rounded=0;" vertex="1" parent="1">
          <mxGeometry x="596" y="465" width="11" height="20" as="geometry" />
        </mxCell>
      </root>
    </mxGraphModel>
  </diagram>
</mxfile>
